<?xml version="1.0" standalone="no"?>
<!DOCTYPE svg PUBLIC "-//W3C//DTD SVG 20010904//EN"
 "http://www.w3.org/TR/2001/REC-SVG-20010904/DTD/svg10.dtd">
<svg version="1.0" xmlns="http://www.w3.org/2000/svg"
 width="1000.000000pt" height="500.000000pt" viewBox="0 0 1000.000000 500.000000"
 preserveAspectRatio="xMidYMid meet">

<g transform="translate(0.000000,500.000000) scale(0.100000,-0.100000)"
fill="#000000" stroke="none">
<path d="M3930 4620 c0 -5 5 -10 10 -10 6 0 10 5 10 10 0 6 -4 10 -10 10 -5 0
-10 -4 -10 -10z"/>
<path d="M4370 4620 c0 -5 5 -10 10 -10 6 0 10 5 10 10 0 6 -4 10 -10 10 -5 0
-10 -4 -10 -10z"/>
<path d="M4823 4613 c-4 -10 -11 -22 -17 -26 -8 -6 -7 -10 2 -14 7 -3 12 -23
12 -49 0 -24 5 -44 10 -44 6 0 10 19 10 41 0 28 6 46 18 55 16 13 16 13 0 14
-10 0 -18 3 -18 6 0 4 8 13 18 20 16 12 15 13 -6 14 -13 0 -25 -8 -29 -17z"/>
<path d="M5230 4605 c0 -22 -3 -25 -25 -19 -34 8 -55 -11 -55 -51 0 -41 15
-54 63 -52 l37 1 0 73 c0 42 -4 73 -10 73 -5 0 -10 -11 -10 -25z m-5 -54 c9
-29 -5 -52 -29 -49 -37 5 -34 68 3 68 11 0 22 -8 26 -19z"/>
<path d="M5280 4620 c0 -5 5 -10 10 -10 6 0 10 5 10 10 0 6 -4 10 -10 10 -5 0
-10 -4 -10 -10z"/>
<path d="M5342 4605 c-12 -13 -17 -27 -12 -30 6 -4 10 -26 10 -51 0 -24 5 -44
10 -44 6 0 10 20 10 44 0 31 5 46 16 50 26 10 34 -2 34 -50 0 -24 5 -44 10
-44 6 0 10 20 10 45 0 33 4 45 15 45 8 0 15 5 15 10 0 6 -7 10 -15 10 -8 0
-15 5 -15 10 0 6 7 10 15 10 8 0 15 5 15 10 0 18 -29 11 -42 -10 -13 -20 -58
-28 -58 -10 0 6 7 10 15 10 8 0 15 5 15 10 0 18 -26 10 -48 -15z"/>
<path d="M3250 4550 l0 -70 45 0 c25 0 45 5 45 10 0 6 -16 10 -35 10 -31 0
-35 3 -35 25 0 22 4 25 36 25 21 0 33 4 29 10 -3 6 -19 10 -36 10 -19 0 -29 5
-29 15 0 10 11 15 35 15 19 0 35 5 35 10 0 6 -20 10 -45 10 l-45 0 0 -70z"/>
<path d="M3850 4605 c0 -8 -5 -15 -11 -15 -8 0 -8 -4 -1 -13 6 -7 12 -30 14
-52 3 -34 7 -40 28 -43 22 -2 23 -1 8 8 -23 14 -25 80 -3 80 8 0 15 5 15 10 0
6 -7 10 -15 10 -8 0 -15 7 -15 15 0 8 -4 15 -10 15 -5 0 -10 -7 -10 -15z"/>
<path d="M4301 4608 c0 -10 -6 -18 -12 -18 -8 0 -8 -4 -1 -13 6 -7 12 -30 14
-52 3 -34 7 -40 28 -43 l25 -3 -22 16 c-30 22 -32 75 -3 75 11 0 20 5 20 10 0
6 -9 10 -19 10 -11 0 -22 8 -24 18 -4 16 -5 16 -6 0z"/>
<path d="M5929 4603 c-4 -40 4 -99 13 -110 6 -7 20 -13 32 -12 21 0 21 0 -1
11 -17 8 -23 20 -23 43 0 25 5 34 23 40 l22 8 -22 4 c-13 2 -23 11 -23 19 0
20 -20 17 -21 -3z"/>
<path d="M3386 4560 c17 -28 17 -30 -1 -50 -10 -11 -15 -23 -11 -27 3 -4 14 4
23 17 l16 23 19 -23 c10 -12 21 -20 25 -16 3 3 -2 15 -12 26 -18 20 -18 22 -1
50 9 17 13 30 7 30 -6 0 -15 -9 -22 -21 l-11 -21 -14 21 c-23 32 -37 25 -18
-9z"/>
<path d="M3497 4572 c-35 -38 -8 -92 46 -92 41 0 42 18 0 22 -52 4 -56 28 -4
28 33 0 41 4 41 18 0 41 -54 57 -83 24z m63 -12 c0 -5 -14 -10 -31 -10 -17 0
-28 4 -24 10 3 6 17 10 31 10 13 0 24 -4 24 -10z"/>
<path d="M3613 4564 c-15 -24 -15 -29 -2 -53 16 -28 54 -40 72 -22 8 8 2 11
-20 11 -22 0 -33 6 -38 19 -9 31 5 51 37 51 17 0 27 4 23 10 -12 20 -54 10
-72 -16z"/>
<path d="M3720 4546 c0 -51 13 -65 58 -64 32 1 32 1 32 55 0 29 -4 53 -10 53
-5 0 -10 -20 -10 -45 0 -41 -2 -45 -25 -45 -23 0 -25 4 -25 45 0 25 -4 45 -10
45 -5 0 -10 -20 -10 -44z"/>
<path d="M3930 4535 c0 -30 5 -55 10 -55 6 0 10 25 10 55 0 30 -4 55 -10 55
-5 0 -10 -25 -10 -55z"/>
<path d="M3992 4578 c-7 -7 -12 -26 -12 -43 0 -36 15 -55 45 -55 30 0 45 19
45 55 0 36 -15 55 -45 55 -12 0 -26 -5 -33 -12z m60 -25 c7 -33 -4 -53 -27
-53 -14 0 -25 7 -27 18 -7 32 4 52 27 52 14 0 25 -7 27 -17z"/>
<path d="M4100 4533 c0 -29 5 -53 10 -53 6 0 10 15 10 33 0 41 12 60 36 55 14
-2 20 -13 22 -46 4 -51 22 -57 22 -6 0 57 -14 73 -60 71 l-40 -1 0 -53z"/>
<path d="M4370 4535 c0 -30 5 -55 10 -55 6 0 10 25 10 55 0 30 -4 55 -10 55
-5 0 -10 -25 -10 -55z"/>
<path d="M4430 4533 c0 -63 18 -72 22 -10 2 35 7 43 26 45 20 3 22 -1 22 -42
0 -58 18 -61 22 -3 2 35 7 43 26 45 20 3 22 -1 22 -42 0 -26 5 -46 11 -46 6 0
9 19 7 46 -4 55 -26 77 -58 57 -11 -8 -21 -9 -25 -3 -3 5 -21 9 -40 8 l-35 -1
0 -54z"/>
<path d="M4636 4574 c-36 -36 -9 -94 44 -94 43 0 46 18 3 22 -52 4 -56 28 -4
28 29 0 41 4 41 14 0 20 -28 46 -50 46 -10 0 -26 -7 -34 -16z m59 -14 c4 -6
-7 -10 -25 -10 -18 0 -29 4 -25 10 3 6 15 10 25 10 10 0 22 -4 25 -10z"/>
<path d="M4892 4578 c-17 -17 -15 -73 2 -88 23 -18 59 -8 75 21 13 24 13 29
-2 53 -19 28 -54 35 -75 14z m63 -27 c9 -29 -5 -52 -29 -49 -37 5 -34 68 3 68
11 0 22 -8 26 -19z"/>
<path d="M5010 4533 c0 -29 5 -53 10 -53 6 0 10 20 10 45 0 38 3 45 20 45 11
0 20 4 20 9 0 5 -13 9 -30 9 -29 -1 -30 -2 -30 -55z"/>
<path d="M5280 4535 c0 -30 5 -55 10 -55 6 0 10 25 10 55 0 30 -4 55 -10 55
-5 0 -10 -25 -10 -55z"/>
<path d="M5483 4564 c-15 -24 -15 -29 -2 -53 15 -27 49 -38 77 -25 12 6 6 9
-22 13 -55 8 -60 31 -7 31 33 0 41 4 41 18 0 46 -60 57 -87 16z m67 -4 c0 -5
-14 -10 -31 -10 -17 0 -28 4 -24 10 3 6 17 10 31 10 13 0 24 -4 24 -10z"/>
<path d="M5600 4533 c0 -63 18 -71 22 -10 2 35 7 43 26 45 35 5 26 20 -13 19
l-35 -1 0 -53z"/>
<path d="M5691 4576 c-7 -8 -11 -30 -9 -48 2 -25 9 -35 29 -42 15 -5 35 -5 45
0 15 7 12 9 -18 12 -20 2 -39 10 -42 18 -4 11 4 14 39 14 49 0 53 5 29 38 -17
25 -56 29 -73 8z m64 -16 c4 -6 -7 -10 -24 -10 -17 0 -31 5 -31 10 0 6 11 10
24 10 14 0 28 -4 31 -10z"/>
<path d="M5811 4530 c1 -30 3 -44 6 -30 10 65 13 71 36 68 18 -2 23 -10 25
-45 4 -52 22 -58 22 -7 0 55 -15 74 -55 71 l-35 -2 1 -55z"/>
<path d="M6082 4510 c0 -41 3 -63 5 -47 4 23 8 26 29 21 33 -8 54 12 54 51 0
40 -17 55 -58 52 l-32 -2 2 -75z m68 25 c0 -30 -3 -35 -24 -35 -26 0 -40 23
-31 51 4 12 16 19 31 19 21 0 24 -5 24 -35z"/>
<path d="M6200 4533 c0 -63 18 -71 22 -10 2 35 7 43 26 45 35 5 26 20 -13 19
l-35 -1 0 -53z"/>
<path d="M6292 4578 c-7 -7 -12 -26 -12 -43 0 -36 15 -55 45 -55 30 0 45 19
45 55 0 36 -15 55 -45 55 -12 0 -26 -5 -33 -12z m60 -25 c7 -33 -4 -53 -27
-53 -14 0 -25 7 -27 18 -7 32 4 52 27 52 14 0 25 -7 27 -17z"/>
<path d="M6411 4577 c-16 -16 -14 -72 4 -87 8 -7 25 -10 40 -6 19 5 23 3 19
-9 -4 -9 -19 -15 -36 -15 -17 0 -27 -4 -23 -10 9 -15 51 -12 65 5 6 8 14 40
17 72 l5 59 -39 1 c-22 1 -45 -3 -52 -10z m64 -26 c9 -29 -5 -52 -29 -49 -37
5 -34 68 3 68 11 0 22 -8 26 -19z"/>
<path d="M6530 4533 c0 -29 5 -53 10 -53 6 0 10 18 10 40 0 34 4 42 25 50 35
13 31 20 -10 18 l-35 -1 0 -54z"/>
<path d="M6625 4580 c-4 -6 7 -10 24 -10 17 0 31 -4 31 -10 0 -5 -11 -10 -24
-10 -13 0 -29 -7 -37 -16 -20 -24 1 -49 45 -51 36 -1 36 -1 36 41 0 23 -5 47
-12 54 -15 15 -54 16 -63 2z m53 -62 c-7 -20 -48 -23 -48 -4 0 11 9 16 26 16
16 0 24 -5 22 -12z"/>
<path d="M6740 4533 c0 -63 18 -72 22 -10 2 35 7 43 26 45 20 3 22 -1 22 -42
0 -58 18 -61 22 -3 2 35 7 43 26 45 20 3 22 -1 22 -42 0 -26 5 -46 11 -46 6 0
9 19 7 46 -4 55 -26 77 -58 57 -11 -8 -21 -9 -25 -3 -3 5 -21 9 -40 8 l-35 -1
0 -54z"/>
<path d="M6942 4581 c-21 -13 -10 -44 17 -51 37 -9 37 -28 -1 -32 -26 -3 -29
-6 -15 -12 9 -5 29 -5 43 -2 33 9 30 48 -5 56 -38 9 -38 30 -1 30 18 0 29 4
25 10 -8 12 -45 13 -63 1z"/>
<path d="M4467 4262 c-10 -2 -22 -14 -27 -26 -7 -20 -17 -24 -92 -29 -45 -4
-107 -7 -135 -7 -40 0 -53 -4 -53 -15 0 -13 23 -15 151 -15 88 0 148 4 145 9
-4 5 0 12 6 14 10 4 10 8 -1 15 -12 9 -12 13 -2 26 8 9 19 16 26 16 7 0 18 -7
26 -16 10 -13 10 -17 -2 -26 -11 -7 -11 -11 -1 -15 6 -2 10 -9 6 -14 -3 -5 57
-9 145 -9 128 0 151 2 151 15 0 11 -13 15 -52 15 -29 0 -91 3 -136 7 -74 5
-85 9 -92 28 -9 23 -33 34 -63 27z"/>
<path d="M968 4253 c26 -5 30 -30 5 -35 -15 -3 -15 -5 3 -10 18 -4 21 -1 20
21 -1 20 -6 26 -26 28 -22 1 -22 1 -2 -4z"/>
<path d="M1070 4240 c0 -13 6 -20 18 -19 10 0 12 3 5 6 -20 8 -15 21 10 26 19
4 18 4 -5 6 -22 1 -28 -4 -28 -19z"/>
<path d="M1218 4213 c6 -2 18 -2 25 0 6 3 1 5 -13 5 -14 0 -19 -2 -12 -5z"/>
<path d="M1090 4170 c-23 -7 -23 -8 -3 -9 12 -1 25 4 28 9 3 6 5 10 3 9 -2 -1
-14 -5 -28 -9z"/>
<path d="M958 4163 c7 -3 16 -2 19 1 4 3 -2 6 -13 5 -11 0 -14 -3 -6 -6z"/>
<path d="M968 3753 c26 -5 30 -30 5 -35 -15 -3 -15 -5 3 -10 18 -4 21 -1 20
21 -1 20 -6 26 -26 28 -22 1 -22 1 -2 -4z"/>
<path d="M1068 3735 c-8 -19 -8 -31 0 -50 19 -42 62 -25 62 25 0 50 -43 67
-62 25z m47 -25 c0 -40 -29 -55 -40 -21 -9 30 4 63 23 59 12 -2 17 -14 17 -38z"/>
<path d="M1218 3713 c6 -2 18 -2 25 0 6 3 1 5 -13 5 -14 0 -19 -2 -12 -5z"/>
<path d="M958 3663 c7 -3 16 -2 19 1 4 3 -2 6 -13 5 -11 0 -14 -3 -6 -6z"/>
<path d="M958 3253 c7 -3 16 -2 19 1 4 3 -2 6 -13 5 -11 0 -14 -3 -6 -6z"/>
<path d="M1080 3240 c0 -13 6 -20 18 -19 10 0 12 3 5 6 -20 8 -15 21 10 26 19
4 18 4 -5 6 -22 1 -28 -4 -28 -19z"/>
<path d="M991 3236 c0 -11 -13 -33 -28 -48 l-27 -28 35 1 c25 1 28 3 11 6
l-24 5 22 23 c12 13 20 31 17 42 -4 17 -5 17 -6 -1z"/>
<path d="M1218 3213 c6 -2 18 -2 25 0 6 3 1 5 -13 5 -14 0 -19 -2 -12 -5z"/>
<path d="M1100 3170 c-23 -7 -23 -8 -3 -9 12 -1 25 4 28 9 3 6 5 10 3 9 -2 -1
-14 -5 -28 -9z"/>
<path d="M734 2774 c-18 -14 -18 -15 5 -3 13 6 44 9 69 6 28 -3 39 -1 31 4
-23 14 -84 10 -105 -7z"/>
<path d="M958 2753 c7 -3 16 -2 19 1 4 3 -2 6 -13 5 -11 0 -14 -3 -6 -6z"/>
<path d="M1078 2735 c-8 -19 -8 -31 0 -50 19 -42 62 -25 62 25 0 50 -43 67
-62 25z m47 -25 c0 -40 -29 -55 -40 -21 -9 30 4 63 23 59 12 -2 17 -14 17 -38z"/>
<path d="M991 2736 c0 -11 -13 -33 -28 -48 l-27 -28 35 1 c25 1 28 3 11 6
l-24 5 22 23 c12 13 20 31 17 42 -4 17 -5 17 -6 -1z"/>
<path d="M790 2706 c-5 -13 -15 -26 -22 -29 -9 -4 -7 -6 4 -6 11 -1 20 9 24
23 3 14 13 27 22 29 15 4 15 5 -1 6 -10 1 -21 -9 -27 -23z"/>
<path d="M751 2704 c0 -11 3 -14 6 -6 3 7 2 16 -1 19 -3 4 -6 -2 -5 -13z"/>
<path d="M1218 2713 c6 -2 18 -2 25 0 6 3 1 5 -13 5 -14 0 -19 -2 -12 -5z"/>
<path d="M831 2694 c0 -11 3 -14 6 -6 3 7 2 16 -1 19 -3 4 -6 -2 -5 -13z"/>
<path d="M728 2628 c18 -18 95 -21 117 -4 19 14 18 15 -12 4 -24 -9 -43 -9
-74 -1 -25 7 -37 7 -31 1z"/>
<path d="M7032 2607 c-6 -6 -13 -24 -17 -40 -7 -25 -11 -27 -64 -29 l-56 -2
55 -3 c30 -2 69 -11 87 -20 29 -15 33 -15 56 0 14 9 51 18 83 20 l59 3 -56 2
c-53 2 -57 4 -64 29 -9 38 -23 53 -50 53 -12 0 -27 -6 -33 -13z m56 -40 c4
-20 -25 -34 -40 -19 -15 15 -1 44 19 40 10 -2 19 -11 21 -21z"/>
<path d="M3161 2527 c-14 -18 -17 -105 -3 -119 6 -6 22 -10 37 -10 38 0 49 15
46 68 -2 54 -14 74 -46 74 -12 0 -28 -6 -34 -13z m57 -9 c20 -20 14 -26 -23
-26 -19 0 -35 3 -35 7 0 11 23 31 35 31 6 0 16 -5 23 -12z m-8 -48 c0 -5 -7
-10 -15 -10 -8 0 -15 5 -15 10 0 6 7 10 15 10 8 0 15 -4 15 -10z m20 -29 c0
-19 -31 -35 -48 -25 -30 20 -25 34 12 34 20 0 36 -4 36 -9z"/>
<path d="M760 2515 c-6 -8 -10 -20 -7 -27 4 -9 6 -7 6 3 1 9 8 19 16 23 11 4
15 -2 15 -25 0 -24 -4 -30 -16 -25 -8 3 -12 2 -9 -4 3 -6 17 -10 30 -10 13 0
27 4 30 10 3 6 -1 7 -9 4 -13 -5 -16 1 -16 30 0 39 -18 48 -40 21z"/>
<path d="M831 2494 c0 -11 3 -14 6 -6 3 7 2 16 -1 19 -3 4 -6 -2 -5 -13z"/>
<path d="M6740 2465 l0 -25 145 0 c90 0 145 4 145 10 0 6 -53 10 -140 10 -194
0 -183 19 13 23 l152 3 -157 2 -158 2 0 -25z"/>
<path d="M7233 2483 c202 -4 213 -23 12 -23 -90 0 -145 -4 -145 -10 0 -6 57
-10 150 -10 l150 0 0 25 0 25 -162 -2 -163 -2 158 -3z"/>
<path d="M756 2404 c-10 -25 -7 -29 7 -11 6 9 28 18 47 20 34 4 34 4 -6 5 -30
2 -44 -3 -48 -14z"/>
<path d="M6983 2413 c48 -2 125 -2 170 0 45 1 6 3 -88 3 -93 0 -130 -2 -82 -3z"/>
<path d="M760 2356 c-4 -6 -8 -23 -7 -38 2 -26 5 -28 47 -26 35 1 38 2 13 5
-35 5 -62 29 -47 43 5 5 25 10 44 12 l35 3 -38 6 c-21 3 -42 0 -47 -5z"/>
<path d="M3162 2268 c-7 -7 -12 -21 -12 -33 0 -12 5 -26 12 -33 9 -9 9 -15 0
-24 -7 -7 -12 -22 -12 -34 0 -19 -7 -21 -92 -28 -50 -3 -115 -6 -145 -6 -46 0
-53 -2 -53 -20 0 -19 6 -20 153 -18 l152 2 -150 6 -150 6 145 2 c159 3 179 7
159 40 -10 17 -10 23 0 36 8 9 19 16 26 16 7 0 18 -7 26 -16 10 -13 10 -19 0
-36 -20 -32 0 -37 154 -40 l140 -2 -145 -6 -145 -6 148 -2 c141 -2 147 -1 147
18 0 17 -7 20 -48 20 -27 0 -90 3 -140 6 -85 7 -92 9 -92 28 0 12 -5 27 -12
34 -9 9 -9 15 0 24 28 28 7 78 -33 78 -12 0 -26 -5 -33 -12z m62 -20 c8 -14 7
-21 -6 -34 -30 -30 -75 9 -48 42 16 18 39 15 54 -8z"/>
<path d="M773 2253 c15 -2 37 -2 50 0 12 2 0 4 -28 4 -27 0 -38 -2 -22 -4z"/>
<path d="M978 2219 c3 -28 0 -44 -9 -50 -10 -6 -5 -8 16 -8 17 0 24 3 18 6 -8
3 -13 23 -13 49 0 24 -3 44 -8 44 -4 0 -6 -19 -4 -41z"/>
<path d="M1080 2240 c0 -13 6 -20 18 -19 10 0 12 3 5 6 -20 8 -15 21 10 26 19
4 18 4 -5 6 -22 1 -28 -4 -28 -19z"/>
<path d="M723 2180 c0 -30 2 -43 4 -28 4 25 8 27 61 31 l57 3 -57 2 c-50 2
-57 5 -61 25 -2 12 -4 -3 -4 -33z"/>
<path d="M1218 2213 c6 -2 18 -2 25 0 6 3 1 5 -13 5 -14 0 -19 -2 -12 -5z"/>
<path d="M1100 2170 c-23 -7 -23 -8 -3 -9 12 -1 25 4 28 9 3 6 5 10 3 9 -2 -1
-14 -5 -28 -9z"/>
<path d="M3113 2043 c48 -2 125 -2 170 0 45 1 6 3 -88 3 -93 0 -130 -2 -82 -3z"/>
<path d="M978 1729 c3 -28 0 -44 -9 -50 -10 -6 -5 -8 16 -8 17 0 24 3 18 6 -8
3 -13 23 -13 49 0 24 -3 44 -8 44 -4 0 -6 -19 -4 -41z"/>
<path d="M1078 1745 c-8 -19 -8 -31 0 -50 19 -42 62 -25 62 25 0 50 -43 67
-62 25z m47 -25 c0 -24 -5 -36 -17 -38 -19 -4 -32 29 -23 59 11 34 40 19 40
-21z"/>
<path d="M8105 1730 c-63 -5 -69 -7 -30 -8 28 -1 93 -5 146 -8 83 -6 97 -5
102 10 6 14 -3 16 -66 14 -40 -1 -108 -5 -152 -8z"/>
<path d="M8387 1724 c5 -15 19 -16 111 -10 58 3 126 7 151 8 56 2 -105 15
-201 17 -59 1 -67 -1 -61 -15z"/>
<path d="M1218 1713 c6 -2 18 -2 25 0 6 3 1 5 -13 5 -14 0 -19 -2 -12 -5z"/>
<path d="M5742 1687 c-6 -6 -13 -24 -17 -38 -6 -25 -11 -26 -88 -33 -45 -3
-106 -6 -134 -6 -29 0 -53 -4 -53 -10 0 -6 57 -10 151 -10 97 0 148 4 144 10
-3 6 -1 10 5 10 7 0 9 7 6 17 -8 19 10 34 31 26 8 -3 11 -13 8 -24 -4 -11 -2
-19 5 -19 6 0 8 -4 5 -10 -4 -6 47 -10 144 -10 94 0 151 4 151 10 0 6 -24 10
-52 10 -29 0 -90 3 -135 6 -77 7 -82 8 -88 33 -9 36 -24 51 -50 51 -12 0 -27
-6 -33 -13z m45 -3 c-3 -3 -12 -4 -19 -1 -8 3 -5 6 6 6 11 1 17 -2 13 -5z"/>
<path d="M962 1258 c-26 -26 -8 -88 25 -88 23 0 38 46 25 75 -13 27 -31 32
-50 13z m43 -18 c9 -29 -4 -62 -23 -58 -18 3 -28 39 -18 64 8 21 34 17 41 -6z"/>
<path d="M1080 1250 c0 -13 6 -20 18 -19 10 0 12 3 5 6 -20 8 -15 21 10 26 19
4 18 4 -5 6 -22 1 -28 -4 -28 -19z"/>
<path d="M1218 1213 c6 -2 18 -2 25 0 6 3 1 5 -13 5 -14 0 -19 -2 -12 -5z"/>
<path d="M1100 1180 c-23 -7 -23 -8 -3 -9 12 -1 25 4 28 9 3 6 5 10 3 9 -2 -1
-14 -5 -28 -9z"/>
<path d="M3162 968 c-28 -28 -7 -78 33 -78 27 0 45 18 45 45 0 27 -18 45 -45
45 -12 0 -26 -5 -33 -12z m62 -20 c8 -14 7 -21 -6 -34 -30 -30 -75 9 -48 42
16 18 39 15 54 -8z"/>
<path d="M962 758 c-26 -26 -8 -88 25 -88 23 0 38 46 25 75 -13 27 -31 32 -50
13z m43 -18 c9 -29 -4 -62 -23 -58 -18 3 -28 39 -18 64 8 21 34 17 41 -6z"/>
<path d="M1078 745 c-8 -19 -8 -31 0 -50 19 -42 62 -25 62 25 0 50 -43 67 -62
25z m47 -25 c0 -40 -29 -55 -40 -21 -9 30 4 63 23 59 12 -2 17 -14 17 -38z"/>
<path d="M1650 731 l-85 -6 115 -7 c171 -12 197 -11 197 7 0 16 -50 17 -227 6z"/>
<path d="M1933 726 c0 -13 11 -16 61 -15 93 2 249 16 195 17 -25 1 -93 5 -151
8 -93 6 -105 5 -105 -10z"/>
<path d="M1218 713 c6 -2 18 -2 25 0 6 3 1 5 -13 5 -14 0 -19 -2 -12 -5z"/>
<path d="M1902 520 c0 -14 2 -19 5 -12 2 6 2 18 0 25 -3 6 -5 1 -5 -13z"/>
<path d="M3192 520 c0 -14 2 -19 5 -12 2 6 2 18 0 25 -3 6 -5 1 -5 -13z"/>
<path d="M4482 520 c0 -14 2 -19 5 -12 2 6 2 18 0 25 -3 6 -5 1 -5 -13z"/>
<path d="M5772 520 c0 -14 2 -19 5 -12 2 6 2 18 0 25 -3 6 -5 1 -5 -13z"/>
<path d="M7062 520 c0 -14 2 -19 5 -12 2 6 2 18 0 25 -3 6 -5 1 -5 -13z"/>
<path d="M8352 520 c0 -14 2 -19 5 -12 2 6 2 18 0 25 -3 6 -5 1 -5 -13z"/>
<path d="M1582 433 c-4 -10 -5 -36 -1 -58 l6 -40 2 38 c0 20 5 37 10 37 6 0
12 -17 14 -37 l4 -38 1 43 c2 31 -2 42 -13 42 -21 0 -19 18 3 23 16 4 16 5 0
6 -10 0 -21 -7 -26 -16z"/>
<path d="M1653 395 c0 -33 2 -45 4 -27 2 18 2 45 0 60 -2 15 -4 0 -4 -33z"/>
<path d="M2150 395 c0 -32 2 -56 5 -53 8 8 9 98 1 105 -3 4 -6 -20 -6 -52z"/>
<path d="M3102 433 c-4 -10 -5 -36 -1 -58 l6 -40 2 38 c0 20 5 37 10 37 6 0
12 -17 14 -37 l4 -38 1 43 c2 31 -2 42 -13 42 -21 0 -19 18 3 23 16 4 16 5 0
6 -10 0 -21 -7 -26 -16z"/>
<path d="M3173 395 c0 -33 2 -45 4 -27 2 18 2 45 0 60 -2 15 -4 0 -4 -33z"/>
<path d="M4233 395 c0 -33 2 -45 4 -27 2 18 2 45 0 60 -2 15 -4 0 -4 -33z"/>
<path d="M4353 395 c0 -33 2 -45 4 -27 2 18 2 45 0 60 -2 15 -4 0 -4 -33z"/>
<path d="M5650 396 c0 -31 4 -55 8 -52 8 5 6 96 -3 104 -3 3 -5 -20 -5 -52z"/>
<path d="M1798 413 c7 -3 16 -2 19 1 4 3 -2 6 -13 5 -11 0 -14 -3 -6 -6z"/>
<path d="M1856 411 c-4 -5 2 -7 13 -4 10 3 22 0 25 -6 5 -7 -4 -11 -23 -11
-17 0 -31 -4 -31 -8 0 -4 16 -6 35 -4 37 4 42 11 23 30 -14 14 -35 16 -42 3z"/>
<path d="M1960 408 c24 -10 24 -10 5 -18 -18 -8 -18 -9 -2 -9 22 -1 17 -25 -5
-29 -9 -2 -19 5 -22 15 -4 15 -5 15 -3 -2 2 -14 10 -20 30 -21 23 -1 27 3 27
25 0 30 -17 51 -39 50 -9 0 -5 -5 9 -11z"/>
<path d="M2021 375 c2 -33 3 -35 6 -10 2 17 11 35 20 42 13 10 13 12 -6 10
-18 -1 -21 -7 -20 -42z"/>
<path d="M2082 408 c-24 -24 -6 -69 28 -67 9 0 6 4 -7 9 -14 6 -23 18 -23 30
0 12 9 24 23 30 13 5 16 9 7 9 -9 1 -21 -4 -28 -11z"/>
<path d="M2187 413 c6 -4 13 -24 16 -43 4 -34 4 -33 3 4 -1 26 -6 41 -16 43
-10 3 -11 2 -3 -4z"/>
<path d="M4192 408 c-22 -22 -7 -69 23 -68 5 0 2 5 -7 11 -10 5 -18 19 -18 29
0 10 8 24 18 29 9 6 12 11 7 11 -6 0 -16 -5 -23 -12z"/>
<path d="M4272 408 c-24 -24 -6 -69 28 -67 9 0 6 4 -7 9 -31 13 -29 30 5 31
l27 1 -30 8 c-24 5 -27 8 -13 14 9 4 22 4 29 0 8 -4 9 -3 5 4 -9 15 -29 15
-44 0z"/>
<path d="M4413 414 c20 -6 23 -24 4 -24 -23 0 -38 -22 -26 -37 7 -7 17 -13 23
-13 6 0 3 5 -7 11 -19 11 -14 29 8 29 7 0 16 -10 18 -22 3 -13 4 -5 4 17 -2
32 -6 40 -22 42 -16 1 -16 1 -2 -3z"/>
<path d="M4470 381 c0 -23 2 -41 4 -41 8 0 12 71 4 76 -4 3 -8 -13 -8 -35z"/>
<path d="M4507 413 c6 -4 13 -24 16 -43 4 -34 4 -33 3 4 -1 26 -6 41 -16 43
-10 3 -11 2 -3 -4z"/>
<path d="M4560 381 c0 -23 2 -41 4 -41 8 0 12 71 4 76 -4 3 -8 -13 -8 -35z"/>
<path d="M4597 413 c6 -4 13 -24 16 -43 4 -34 4 -33 3 4 -1 26 -6 41 -16 43
-10 3 -11 2 -3 -4z"/>
<path d="M4656 412 c-3 -5 5 -8 17 -8 17 1 22 -5 22 -24 0 -20 -5 -25 -23 -24
-16 0 -20 -2 -12 -10 13 -13 44 4 48 28 6 31 -37 62 -52 38z"/>
<path d="M5571 380 l1 -45 8 35 c5 20 5 39 -1 45 -5 5 -9 -8 -8 -35z"/>
<path d="M5612 406 c7 -8 15 -12 17 -11 5 6 -10 25 -20 25 -5 0 -4 -6 3 -14z"/>
<path d="M5692 406 c7 -8 15 -12 17 -11 5 6 -10 25 -20 25 -5 0 -4 -6 3 -14z"/>
<path d="M5773 410 c9 -6 17 -20 17 -30 0 -10 -8 -24 -17 -30 -11 -7 -12 -10
-4 -7 8 2 19 11 25 20 12 19 -1 48 -25 54 -8 3 -7 0 4 -7z"/>
<path d="M5832 408 c-22 -22 -7 -69 23 -68 5 0 2 5 -7 11 -10 5 -18 19 -18 29
0 10 8 24 18 29 9 6 12 11 7 11 -6 0 -16 -5 -23 -12z"/>
<path d="M6851 380 l1 -45 8 35 c5 20 5 39 -1 45 -5 5 -9 -8 -8 -35z"/>
<path d="M6887 413 c6 -4 13 -24 16 -43 4 -34 4 -33 3 4 -1 26 -6 41 -16 43
-10 3 -11 2 -3 -4z"/>
<path d="M6937 413 c6 -4 13 -24 16 -43 4 -34 4 -33 3 4 -1 26 -6 41 -16 43
-10 3 -11 2 -3 -4z"/>
<path d="M6990 416 c0 -2 9 -6 20 -9 11 -3 18 -1 14 4 -5 9 -34 13 -34 5z"/>
<path d="M7068 413 c6 -2 18 -2 25 0 6 3 1 5 -13 5 -14 0 -19 -2 -12 -5z"/>
<path d="M7121 375 c2 -33 3 -35 6 -10 2 17 11 35 20 42 13 10 13 12 -6 10
-18 -1 -21 -7 -20 -42z"/>
<path d="M7183 380 c0 -25 2 -35 4 -22 2 12 2 32 0 45 -2 12 -4 2 -4 -23z"/>
<path d="M7256 404 c-5 -14 -9 -14 -24 -3 -15 12 -16 12 -5 -2 10 -12 9 -20
-4 -40 -17 -24 -17 -24 4 -6 21 18 22 18 32 0 6 -10 11 -13 11 -7 0 5 -5 15
-12 22 -8 8 -8 15 2 27 7 8 11 18 8 21 -3 3 -8 -3 -12 -12z"/>
<path d="M8252 408 c-22 -22 -7 -69 23 -68 5 0 2 5 -7 11 -10 5 -18 19 -18 29
0 10 8 24 18 29 9 6 12 11 7 11 -6 0 -16 -5 -23 -12z"/>
<path d="M8293 365 c0 -33 2 -45 4 -27 2 18 2 45 0 60 -2 15 -4 0 -4 -33z"/>
<path d="M8350 408 c24 -10 24 -10 5 -18 -18 -8 -18 -9 -2 -9 22 -1 17 -25 -5
-29 -9 -2 -19 5 -22 15 -4 15 -5 15 -3 -2 2 -14 10 -20 30 -21 23 -1 27 3 27
25 0 30 -17 51 -39 50 -9 0 -5 -5 9 -11z"/>
<path d="M8411 361 c1 -32 4 -48 7 -36 4 11 16 20 27 20 16 0 20 7 20 35 0 31
-3 35 -27 36 -27 1 -28 0 -27 -55z m49 19 c0 -32 -26 -43 -36 -15 -9 21 3 45
21 45 10 0 15 -10 15 -30z"/>
<path d="M1691 384 c-1 -31 13 -45 42 -43 7 0 2 4 -10 9 -31 12 -29 30 2 30
17 0 25 5 24 18 0 10 -3 12 -6 5 -2 -7 -13 -13 -23 -13 -10 0 -21 6 -23 13 -3
6 -6 -2 -6 -19z"/>
<path d="M1770 401 c0 -6 4 -13 10 -16 6 -3 7 1 4 9 -7 18 -14 21 -14 7z"/>
<path d="M3211 384 c-1 -31 13 -45 42 -43 7 0 2 4 -10 9 -31 12 -29 30 2 30
17 0 25 5 24 18 0 10 -3 12 -6 5 -2 -7 -13 -13 -23 -13 -10 0 -21 6 -23 13 -3
6 -6 -2 -6 -19z"/>
<path d="M5956 395 c-9 -26 -7 -32 5 -12 6 10 9 21 6 23 -2 3 -7 -2 -11 -11z"/>
<path d="M5920 384 c0 -6 7 -19 15 -30 8 -10 14 -14 14 -9 0 6 -6 19 -14 29
-8 11 -15 15 -15 10z"/>
<path d="M6986 381 c-3 -4 6 -6 21 -3 21 4 25 2 20 -11 -3 -9 -2 -19 3 -22 6
-4 10 5 10 19 0 21 -5 26 -24 26 -14 0 -27 -4 -30 -9z"/>
<path d="M5692 354 c-7 -8 -8 -14 -3 -14 10 0 25 19 20 25 -2 1 -10 -3 -17
-11z"/>
<path d="M1795 350 c-16 -7 -17 -9 -3 -9 9 -1 20 4 23 9 7 11 7 11 -20 0z"/>
<path d="M4750 340 c0 -11 -5 -20 -12 -20 -6 0 -8 -3 -4 -7 4 -5 14 1 22 11
16 23 18 36 4 36 -5 0 -10 -9 -10 -20z"/>
<path d="M6987 349 c7 -7 15 -10 18 -7 3 3 -2 9 -12 12 -14 6 -15 5 -6 -5z"/>
<path d="M7077 349 c7 -7 15 -10 18 -7 3 3 -2 9 -12 12 -14 6 -15 5 -6 -5z"/>
<path d="M1878 343 c7 -3 16 -2 19 1 4 3 -2 6 -13 5 -11 0 -14 -3 -6 -6z"/>
<path d="M5920 320 c-9 -6 -10 -10 -3 -10 6 0 15 5 18 10 8 12 4 12 -15 0z"/>
</g>
</svg>
